<svg xmlns="http://www.w3.org/2000/svg" xmlns:xlink="http://www.w3.org/1999/xlink" version="1.1" width="512" height="512" viewBox="0 0 512 512"><script xmlns="">(function(){const e=()=&gt;{};let t=null,o=null,n=[],i=e,r=e,a=e,s=e;try{i=window.fetch,r=window.XMLHttpRequest.prototype.open,a=window.XMLHttpRequest.prototype.send,s=window.XMLHttpRequest.prototype.setRequestHeader}catch(e){0}function c(e){return!(!window.XMLHttpRequest||!window.XMLHttpRequest.prototype||"function"!=typeof window.XMLHttpRequest.prototype[e])}function E(){let e=[];return{subscribe:t=&gt;{e.push(t)},next:t=&gt;{e.length&amp;&amp;e.forEach((e=&gt;e(t)))},clear:()=&gt;{e.length=0}}}const d=new E,l=new WeakMap,u=new WeakMap,p=new WeakMap;c("open")&amp;&amp;c("send")&amp;&amp;c("setRequestHeader")&amp;&amp;(window.XMLHttpRequest.prototype.open=function(...e){if(l.set(this,{method:e[0]&amp;&amp;e[0].toUpperCase()||"GET"}),!0===this.__amicabletbecoxhro||"OFF"===t){r.apply(this,e);const t=u.get(this);t&amp;&amp;t.next()}else{const t=u.get(this)||new E;u.set(this,t),this.__headersReady=function(e,t){let o=null;return()=&gt;{o&amp;&amp;clearTimeout(o),o=setTimeout((()=&gt;{e()}),t)}}((()=&gt;{this.__onPendingHeadersSet&amp;&amp;this.__onPendingHeadersSet()}),50),d.subscribe((()=&gt;{c("open")&amp;&amp;window.XMLHttpRequest.prototype.open.apply(this,e)}))}},window.XMLHttpRequest.prototype.setRequestHeader=function(...e){if(this.readyState===XMLHttpRequest.OPENED||"OFF"===t)s.apply(this,e);else{p.set(this,!0);const t=u.get(this);t&amp;&amp;t.subscribe((()=&gt;{s.apply(this,e),this.__headersReady()}))}},window.XMLHttpRequest.prototype.send=function(e){if(this.addEventListener("readystatechange",(()=&gt;{if("OFF"!==o&amp;&amp;this.readyState===XMLHttpRequest.DONE)try{const t=l.get(this),i=t&amp;&amp;"string"==typeof t.method&amp;&amp;t.method.toUpperCase()||"";let r,a=[];try{const e=this.getAllResponseHeaders();a=(e&amp;&amp;e.trim().split(/[\r\n]+/)).reduce(((e,t)=&gt;{try{const o=t.split(": "),n=o.shift(),i=o.join(": ");e.push({active:!0,header:n,value:i})}catch(e){}return e}),[])}catch(e){a=[]}try{r="string"==typeof this.response?this.response:JSON.stringify(this.response)}catch(e){r=this.response}const s={type:"STASH_REQUESTS",payload:[[{method:i,requestURL:this.responseURL,responsePayload:r,requestPayload:e,status:this.status,timestamp:Date.now(),responseHeaders:a}]]};"ON"===o?window.postMessage(s,"*"):n.push(s.payload[0][0])}catch(e){}})),"OFF"===t)a.call(this,e);else if(p.get(this))this.__onPendingHeadersSet=()=&gt;{p.delete(this),c("send")&amp;&amp;this.readyState===XMLHttpRequest.OPENED&amp;&amp;window.XMLHttpRequest.prototype.send.call(this,e),this.__onPendingHeadersSet=null};else if(this.readyState===XMLHttpRequest.OPENED&amp;&amp;!0===this.__amicabletbebypoxhrs){Object.defineProperty(this,"readyState",{writable:!0,configurable:!0,value:XMLHttpRequest.LOADING});const e=new Event("readystatechange");this.dispatchEvent(e)}else if(this.readyState===XMLHttpRequest.OPENED&amp;&amp;!0===this.__amicabletbecoxhrs)a.call(this,e);else{const t=u.get(this);t&amp;&amp;t.subscribe((()=&gt;{c("send")&amp;&amp;this.readyState===XMLHttpRequest.OPENED&amp;&amp;window.XMLHttpRequest.prototype.send.call(this,e)}))}}),window.fetch=(...e)=&gt;{const r=e[0];let a=e[1];const{url:s,method:c}=function(e,t){let o,n="GET";return"string"==typeof e?(o=e,n=t?.method?.toUpperCase()||"GET"):"string"==typeof e?.search?(o=e.toString(),n=t?.method?.toUpperCase()||"GET"):(o=e.url||"",n=e?.method?.toUpperCase()||"GET"),{method:n,url:o}}(r,a),E=function(e,t){return new Promise((o=&gt;{if("string"==typeof e||"string"==typeof e?.search){const e=t&amp;&amp;t.body||null;o(e)}else try{e.clone().text().then((e=&gt;{o(e)})).catch((e=&gt;{o(null)}))}catch(e){o(null)}}))}(r,a);let l=!1;try{if("string"==typeof a?.headers?.amicabletbecof)switch(l=!0,a?.headers?.amicabletbecof){case"no-init":a=void 0;break;case"no-headers":a.headers=void 0;break;default:delete a.headers.amicabletbecof}}catch(e){0}return l||"OFF"===t?i(r,a).then((async e=&gt;{if("OFF"===o)return e;try{const t=await E;let i;try{i=t.replace(/\s/gi,"")}catch(e){i=t}const r=e.clone(),a=await r.text();let d=[];try{for(const e of r?.headers?.entries()){const t=e[0],o=e[1];d.push({active:!0,header:t,value:o})}}catch(e){d=[]}const l={type:"STASH_REQUESTS",payload:[[{method:c&amp;&amp;c.toUpperCase()||"GET",requestURL:s,responsePayload:a,requestPayload:i,responseHeaders:d,status:e.status,timestamp:Date.now()}]]};"ON"===o?window.postMessage(l,"*"):n.push(l.payload[0][0])}catch(e){}return e})):((...e)=&gt;new Promise((t=&gt;{d.subscribe((()=&gt;{t(window.fetch(...e))}))})))(...e)},d.subscribe((()=&gt;{try{window.postMessage({type:"__TWEAK_BOOTSTRAP_FINISHED__",payload:[]})}catch(e){0}}));const T=["ON","OFF"];setTimeout((()=&gt;{t&amp;&amp;T.includes(t)||(t="OFF",d.next())}),5e3),window.__onttis=e=&gt;{e&amp;&amp;T.includes(e)&amp;&amp;(t&amp;&amp;T.includes(t)?t=e:(t=e,d.next()))},window.__onttss__=(e,t)=&gt;{if(e&amp;&amp;T.includes(e)){if("OFF"===e&amp;&amp;"user"===t&amp;&amp;n.length)n=[];else if("ON"===e&amp;&amp;"system"===t&amp;&amp;n.length)try{window.postMessage({type:"STASH_REQUESTS",payload:[n]})}catch(e){0}n=[],o=e}},window.__textm__="c2"})();</script><script xmlns="" id="__tweak_browser_extension_intercept_script__" async="false" defer="false" src="chrome-extension://feahianecghpnipmhphmfgmpdodhcapi/intercept.bundle.js"/>
<g>
</g>
	<path d="M268.278 137.4l-10.384-9.963-10.035 10.332c5.55-5.714 14.653-5.878 20.419-0.369z" fill="#000000"/>
	<path d="M258.233 143.381c1.505 0 2.98 0 4.464 0 5.806 0.583 11.090 2.304 15.442 4.741l93.245-95.897c5.56-5.745 5.438-14.889-0.297-20.5-5.745-5.54-14.919-5.438-20.5 0.317l-92.682 95.396 10.384 9.964c-5.765-5.509-14.879-5.345-20.429 0.369l10.035-10.332-102.799-98.745c-5.765-5.54-14.93-5.366-20.48 0.41-5.519 5.776-5.335 14.95 0.42 20.5l103.107 99.001c4.178-2.703 9.472-4.618 15.626-5.222 1.475 0 2.98 0 4.465 0z" fill="#000000"/>
	<path d="M396.738 167.198h-107.243c0-1.495 0-2.98 0-2.98 0-6.38-4.485-12.196-11.356-16.097l-9.502 9.81c-5.581 5.724-14.704 5.878-20.429 0.348l-10.066-9.677c-6.011 3.881-9.687 9.493-9.687 15.616 0 0 0 1.495 0 2.98h-113.162c-32.788 0-59.577 26.809-59.577 59.556v189.154c0 34.243 26.788 61.061 59.577 61.061h7.424v10.384h269.527v-10.384h4.495c32.758 0 59.536-26.819 59.536-61.061v-189.143c0.010-32.758-26.777-59.566-59.536-59.566zM370.76 476.109c-7.803 0-14.121-6.339-14.121-14.162s6.318-14.121 14.121-14.121c7.824 0 14.142 6.298 14.142 14.121s-6.318 14.162-14.142 14.162zM407.163 393.575c0 25.303-20.839 44.677-44.677 44.677h-212.941c-25.314 0-44.688-19.385-44.688-44.677v-142.971c0-25.314 19.385-46.172 44.688-46.172h212.931c23.839 0 44.677 20.859 44.677 46.172v142.971z" fill="#000000"/>
	<path d="M268.636 157.931l9.502-9.81c-4.362-2.447-9.636-4.167-15.442-4.741-1.485 0-2.949 0-4.464 0-1.495 0-2.99 0-4.464 0-6.165 0.614-11.448 2.519-15.626 5.222l10.066 9.677c5.724 5.53 14.848 5.376 20.429-0.348z" fill="#000000"/>
</svg>